<mxfile host="Electron" modified="2024-12-20T11:09:09.370Z" agent="Mozilla/5.0 (Windows NT 10.0; Win64; x64) AppleWebKit/537.36 (KHTML, like Gecko) draw.io/22.1.21 Chrome/120.0.6099.109 Electron/28.1.0 Safari/537.36" etag="hYAbUvVnz3GZPaqrSMa2" version="22.1.21" type="device">
  <diagram id="C5RBs43oDa-KdzZeNtuy" name="Page-1">
    <mxGraphModel dx="2103" dy="1775" grid="1" gridSize="10" guides="1" tooltips="1" connect="1" arrows="1" fold="1" page="1" pageScale="1" pageWidth="827" pageHeight="1169" math="0" shadow="0">
      <root>
        <mxCell id="WIyWlLk6GJQsqaUBKTNV-0" />
        <mxCell id="WIyWlLk6GJQsqaUBKTNV-1" parent="WIyWlLk6GJQsqaUBKTNV-0" />
        <mxCell id="QkK8_UijmXfv4Ax2FBWr-4" value="" style="edgeStyle=orthogonalEdgeStyle;rounded=0;orthogonalLoop=1;jettySize=auto;html=1;" parent="WIyWlLk6GJQsqaUBKTNV-1" source="WIyWlLk6GJQsqaUBKTNV-3" target="QkK8_UijmXfv4Ax2FBWr-3" edge="1">
          <mxGeometry relative="1" as="geometry" />
        </mxCell>
        <mxCell id="WIyWlLk6GJQsqaUBKTNV-3" value="Hiển thị&amp;nbsp; danh sách Banners" style="rounded=1;whiteSpace=wrap;html=1;fontSize=12;glass=0;strokeWidth=1;shadow=0;" parent="WIyWlLk6GJQsqaUBKTNV-1" vertex="1">
          <mxGeometry x="-438" y="-550" width="120" height="40" as="geometry" />
        </mxCell>
        <mxCell id="QkK8_UijmXfv4Ax2FBWr-2" value="" style="edgeStyle=orthogonalEdgeStyle;rounded=0;orthogonalLoop=1;jettySize=auto;html=1;" parent="WIyWlLk6GJQsqaUBKTNV-1" source="QkK8_UijmXfv4Ax2FBWr-0" target="WIyWlLk6GJQsqaUBKTNV-3" edge="1">
          <mxGeometry relative="1" as="geometry" />
        </mxCell>
        <mxCell id="QkK8_UijmXfv4Ax2FBWr-0" value="" style="strokeWidth=2;html=1;shape=mxgraph.flowchart.start_2;whiteSpace=wrap;" parent="WIyWlLk6GJQsqaUBKTNV-1" vertex="1">
          <mxGeometry x="-394" y="-640" width="66" height="60" as="geometry" />
        </mxCell>
        <mxCell id="QkK8_UijmXfv4Ax2FBWr-1" value="" style="strokeWidth=2;html=1;shape=mxgraph.flowchart.start_2;whiteSpace=wrap;" parent="WIyWlLk6GJQsqaUBKTNV-1" vertex="1">
          <mxGeometry x="-258" y="-20" width="66" height="60" as="geometry" />
        </mxCell>
        <mxCell id="QkK8_UijmXfv4Ax2FBWr-6" value="" style="edgeStyle=orthogonalEdgeStyle;rounded=0;orthogonalLoop=1;jettySize=auto;html=1;" parent="WIyWlLk6GJQsqaUBKTNV-1" source="QkK8_UijmXfv4Ax2FBWr-3" target="QkK8_UijmXfv4Ax2FBWr-5" edge="1">
          <mxGeometry relative="1" as="geometry" />
        </mxCell>
        <mxCell id="QkK8_UijmXfv4Ax2FBWr-3" value="Xóa" style="rounded=1;whiteSpace=wrap;html=1;fontSize=12;glass=0;strokeWidth=1;shadow=0;" parent="WIyWlLk6GJQsqaUBKTNV-1" vertex="1">
          <mxGeometry x="-438" y="-450" width="120" height="40" as="geometry" />
        </mxCell>
        <mxCell id="QkK8_UijmXfv4Ax2FBWr-8" style="edgeStyle=orthogonalEdgeStyle;rounded=0;orthogonalLoop=1;jettySize=auto;html=1;entryX=0.25;entryY=0;entryDx=0;entryDy=0;" parent="WIyWlLk6GJQsqaUBKTNV-1" source="QkK8_UijmXfv4Ax2FBWr-5" target="QkK8_UijmXfv4Ax2FBWr-7" edge="1">
          <mxGeometry relative="1" as="geometry" />
        </mxCell>
        <mxCell id="QkK8_UijmXfv4Ax2FBWr-9" value="xóa" style="edgeLabel;html=1;align=center;verticalAlign=middle;resizable=0;points=[];" parent="QkK8_UijmXfv4Ax2FBWr-8" vertex="1" connectable="0">
          <mxGeometry x="-0.2511" y="5" relative="1" as="geometry">
            <mxPoint as="offset" />
          </mxGeometry>
        </mxCell>
        <mxCell id="QkK8_UijmXfv4Ax2FBWr-11" style="edgeStyle=orthogonalEdgeStyle;rounded=0;orthogonalLoop=1;jettySize=auto;html=1;entryX=1;entryY=0;entryDx=0;entryDy=0;" parent="WIyWlLk6GJQsqaUBKTNV-1" source="QkK8_UijmXfv4Ax2FBWr-5" target="QkK8_UijmXfv4Ax2FBWr-10" edge="1">
          <mxGeometry relative="1" as="geometry" />
        </mxCell>
        <mxCell id="QkK8_UijmXfv4Ax2FBWr-13" value="không" style="edgeLabel;html=1;align=center;verticalAlign=middle;resizable=0;points=[];" parent="QkK8_UijmXfv4Ax2FBWr-11" vertex="1" connectable="0">
          <mxGeometry x="-0.4261" y="-5" relative="1" as="geometry">
            <mxPoint as="offset" />
          </mxGeometry>
        </mxCell>
        <mxCell id="QkK8_UijmXfv4Ax2FBWr-5" value="Xác nhận" style="strokeWidth=2;html=1;shape=mxgraph.flowchart.decision;whiteSpace=wrap;" parent="WIyWlLk6GJQsqaUBKTNV-1" vertex="1">
          <mxGeometry x="-428" y="-370" width="100" height="100" as="geometry" />
        </mxCell>
        <mxCell id="QkK8_UijmXfv4Ax2FBWr-16" value="" style="edgeStyle=orthogonalEdgeStyle;rounded=0;orthogonalLoop=1;jettySize=auto;html=1;" parent="WIyWlLk6GJQsqaUBKTNV-1" source="QkK8_UijmXfv4Ax2FBWr-7" target="QkK8_UijmXfv4Ax2FBWr-14" edge="1">
          <mxGeometry relative="1" as="geometry" />
        </mxCell>
        <mxCell id="QkK8_UijmXfv4Ax2FBWr-7" value="Xóa" style="rounded=1;whiteSpace=wrap;html=1;fontSize=12;glass=0;strokeWidth=1;shadow=0;" parent="WIyWlLk6GJQsqaUBKTNV-1" vertex="1">
          <mxGeometry x="-558" y="-230" width="120" height="40" as="geometry" />
        </mxCell>
        <mxCell id="QkK8_UijmXfv4Ax2FBWr-10" value="không xóa" style="rounded=1;whiteSpace=wrap;html=1;fontSize=12;glass=0;strokeWidth=1;shadow=0;" parent="WIyWlLk6GJQsqaUBKTNV-1" vertex="1">
          <mxGeometry x="-298" y="-240" width="120" height="40" as="geometry" />
        </mxCell>
        <mxCell id="QkK8_UijmXfv4Ax2FBWr-24" style="edgeStyle=orthogonalEdgeStyle;rounded=0;orthogonalLoop=1;jettySize=auto;html=1;entryX=0.75;entryY=0;entryDx=0;entryDy=0;exitX=1;exitY=0.5;exitDx=0;exitDy=0;exitPerimeter=0;" parent="WIyWlLk6GJQsqaUBKTNV-1" source="QkK8_UijmXfv4Ax2FBWr-14" target="QkK8_UijmXfv4Ax2FBWr-22" edge="1">
          <mxGeometry relative="1" as="geometry" />
        </mxCell>
        <mxCell id="QkK8_UijmXfv4Ax2FBWr-25" value="thất bại" style="edgeLabel;html=1;align=center;verticalAlign=middle;resizable=0;points=[];" parent="QkK8_UijmXfv4Ax2FBWr-24" vertex="1" connectable="0">
          <mxGeometry x="-0.4739" y="4" relative="1" as="geometry">
            <mxPoint as="offset" />
          </mxGeometry>
        </mxCell>
        <mxCell id="QkK8_UijmXfv4Ax2FBWr-14" value="" style="strokeWidth=2;html=1;shape=mxgraph.flowchart.decision;whiteSpace=wrap;" parent="WIyWlLk6GJQsqaUBKTNV-1" vertex="1">
          <mxGeometry x="-558" y="-120" width="90" height="90" as="geometry" />
        </mxCell>
        <mxCell id="QkK8_UijmXfv4Ax2FBWr-21" style="edgeStyle=orthogonalEdgeStyle;rounded=0;orthogonalLoop=1;jettySize=auto;html=1;entryX=0;entryY=0.75;entryDx=0;entryDy=0;" parent="WIyWlLk6GJQsqaUBKTNV-1" source="QkK8_UijmXfv4Ax2FBWr-17" target="QkK8_UijmXfv4Ax2FBWr-20" edge="1">
          <mxGeometry relative="1" as="geometry" />
        </mxCell>
        <mxCell id="QkK8_UijmXfv4Ax2FBWr-17" value="Thông báo thành công" style="rounded=1;whiteSpace=wrap;html=1;fontSize=12;glass=0;strokeWidth=1;shadow=0;" parent="WIyWlLk6GJQsqaUBKTNV-1" vertex="1">
          <mxGeometry x="-668" y="-20" width="120" height="40" as="geometry" />
        </mxCell>
        <mxCell id="QkK8_UijmXfv4Ax2FBWr-18" style="edgeStyle=orthogonalEdgeStyle;rounded=0;orthogonalLoop=1;jettySize=auto;html=1;entryX=0.158;entryY=0.075;entryDx=0;entryDy=0;entryPerimeter=0;exitX=0;exitY=0.5;exitDx=0;exitDy=0;exitPerimeter=0;" parent="WIyWlLk6GJQsqaUBKTNV-1" source="QkK8_UijmXfv4Ax2FBWr-14" target="QkK8_UijmXfv4Ax2FBWr-17" edge="1">
          <mxGeometry relative="1" as="geometry" />
        </mxCell>
        <mxCell id="QkK8_UijmXfv4Ax2FBWr-19" value="thành công" style="edgeLabel;html=1;align=center;verticalAlign=middle;resizable=0;points=[];" parent="QkK8_UijmXfv4Ax2FBWr-18" vertex="1" connectable="0">
          <mxGeometry x="-0.2744" relative="1" as="geometry">
            <mxPoint as="offset" />
          </mxGeometry>
        </mxCell>
        <mxCell id="QkK8_UijmXfv4Ax2FBWr-20" value="lấy dữ liệu Banners mới" style="rounded=1;whiteSpace=wrap;html=1;fontSize=12;glass=0;strokeWidth=1;shadow=0;" parent="WIyWlLk6GJQsqaUBKTNV-1" vertex="1">
          <mxGeometry x="-548" y="70" width="120" height="40" as="geometry" />
        </mxCell>
        <mxCell id="QkK8_UijmXfv4Ax2FBWr-22" value="Thông báo lỗi" style="rounded=1;whiteSpace=wrap;html=1;fontSize=12;glass=0;strokeWidth=1;shadow=0;" parent="WIyWlLk6GJQsqaUBKTNV-1" vertex="1">
          <mxGeometry x="-468" y="-20" width="120" height="40" as="geometry" />
        </mxCell>
        <mxCell id="QkK8_UijmXfv4Ax2FBWr-23" style="edgeStyle=orthogonalEdgeStyle;rounded=0;orthogonalLoop=1;jettySize=auto;html=1;entryX=1;entryY=0.5;entryDx=0;entryDy=0;entryPerimeter=0;exitX=1;exitY=0.5;exitDx=0;exitDy=0;" parent="WIyWlLk6GJQsqaUBKTNV-1" source="QkK8_UijmXfv4Ax2FBWr-10" target="QkK8_UijmXfv4Ax2FBWr-1" edge="1">
          <mxGeometry relative="1" as="geometry" />
        </mxCell>
        <mxCell id="QkK8_UijmXfv4Ax2FBWr-26" style="edgeStyle=orthogonalEdgeStyle;rounded=0;orthogonalLoop=1;jettySize=auto;html=1;entryX=0;entryY=0.5;entryDx=0;entryDy=0;entryPerimeter=0;" parent="WIyWlLk6GJQsqaUBKTNV-1" source="QkK8_UijmXfv4Ax2FBWr-22" target="QkK8_UijmXfv4Ax2FBWr-1" edge="1">
          <mxGeometry relative="1" as="geometry" />
        </mxCell>
        <mxCell id="QkK8_UijmXfv4Ax2FBWr-27" style="edgeStyle=orthogonalEdgeStyle;rounded=0;orthogonalLoop=1;jettySize=auto;html=1;entryX=0.5;entryY=1;entryDx=0;entryDy=0;entryPerimeter=0;" parent="WIyWlLk6GJQsqaUBKTNV-1" source="QkK8_UijmXfv4Ax2FBWr-20" target="QkK8_UijmXfv4Ax2FBWr-1" edge="1">
          <mxGeometry relative="1" as="geometry" />
        </mxCell>
      </root>
    </mxGraphModel>
  </diagram>
</mxfile>
